# Blender v2.78 (sub 0) OBJ File: ''
# www.blender.org
mtllib smartOutlet.mtl
o Cube_Cube.002
v -0.217377 0.891173 0.546314
v -0.350549 0.713610 0.546314
v -0.224587 0.890913 0.546314
v -0.231775 0.890132 0.546314
v -0.238922 0.888834 0.546314
v -0.246005 0.887022 0.546314
v -0.253004 0.884701 0.546314
v -0.259899 0.881878 0.546314
v -0.266669 0.878562 0.546314
v -0.273294 0.874762 0.546314
v -0.279756 0.870489 0.546314
v -0.286034 0.865756 0.546314
v -0.292111 0.860577 0.546314
v -0.297969 0.854967 0.546314
v -0.303591 0.848942 0.546314
v -0.308959 0.842520 0.546314
v -0.314059 0.835720 0.546314
v -0.318876 0.828562 0.546314
v -0.323394 0.821066 0.546314
v -0.327602 0.813256 0.546314
v -0.331487 0.805153 0.546314
v -0.335036 0.796782 0.546314
v -0.338241 0.788167 0.546314
v -0.341091 0.779333 0.546314
v -0.343578 0.770306 0.546314
v -0.345695 0.761113 0.546314
v -0.347436 0.751781 0.546314
v -0.348795 0.742336 0.546314
v -0.349768 0.732808 0.546314
v -0.350354 0.723223 0.546314
v -0.350549 0.713610 0.346314
v -0.217377 0.891173 0.346314
v -0.350354 0.723223 0.346314
v -0.349768 0.732808 0.346314
v -0.348795 0.742336 0.346314
v -0.347436 0.751781 0.346314
v -0.345695 0.761113 0.346314
v -0.343578 0.770306 0.346314
v -0.341091 0.779333 0.346314
v -0.338241 0.788167 0.346314
v -0.335036 0.796782 0.346314
v -0.331486 0.805153 0.346314
v -0.327602 0.813256 0.346314
v -0.323394 0.821066 0.346314
v -0.318876 0.828562 0.346314
v -0.314059 0.835720 0.346314
v -0.308959 0.842520 0.346314
v -0.303591 0.848942 0.346314
v -0.297969 0.854967 0.346314
v -0.292111 0.860577 0.346314
v -0.286034 0.865756 0.346314
v -0.279756 0.870489 0.346314
v -0.273294 0.874762 0.346314
v -0.266669 0.878562 0.346314
v -0.259899 0.881878 0.346314
v -0.253004 0.884701 0.346314
v -0.246005 0.887022 0.346314
v -0.238922 0.888834 0.346314
v -0.231775 0.890132 0.346314
v -0.224587 0.890913 0.346314
v 0.249451 0.698813 0.546314
v 0.105181 0.891173 0.546314
v 0.248835 0.716561 0.546314
v 0.246994 0.734159 0.546314
v 0.243943 0.751455 0.546314
v 0.239709 0.768301 0.546314
v 0.234326 0.784555 0.546314
v 0.227842 0.800077 0.546314
v 0.220311 0.814736 0.546314
v 0.211798 0.828405 0.546314
v 0.202375 0.840969 0.546314
v 0.192123 0.852319 0.546314
v 0.181129 0.862361 0.546314
v 0.169487 0.871007 0.546314
v 0.157297 0.878183 0.546314
v 0.144662 0.883830 0.546314
v 0.131690 0.887898 0.546314
v 0.118492 0.890352 0.546314
v 0.105181 0.891173 0.346314
v 0.249451 0.698813 0.346314
v 0.118492 0.890352 0.346314
v 0.131690 0.887898 0.346314
v 0.144662 0.883830 0.346314
v 0.157297 0.878183 0.346314
v 0.169487 0.871007 0.346314
v 0.181129 0.862361 0.346314
v 0.192123 0.852319 0.346314
v 0.202375 0.840969 0.346314
v 0.211798 0.828405 0.346314
v 0.220311 0.814736 0.346314
v 0.227842 0.800077 0.346314
v 0.234326 0.784555 0.346314
v 0.239709 0.768301 0.346314
v 0.243943 0.751455 0.346314
v 0.246994 0.734159 0.346314
v 0.248835 0.716561 0.346314
v 0.059134 0.091173 0.546314
v 0.249451 0.344929 0.546314
v 0.082074 0.093023 0.546314
v 0.104680 0.098547 0.546314
v 0.126621 0.107663 0.546314
v 0.147579 0.120239 0.546314
v 0.167246 0.136092 0.546314
v 0.185337 0.154990 0.546314
v 0.201588 0.176658 0.546314
v 0.215762 0.200779 0.546314
v 0.227651 0.227003 0.546314
v 0.237083 0.254946 0.546314
v 0.243921 0.284201 0.546314
v 0.248063 0.314342 0.546314
v 0.249451 0.344929 0.346314
v 0.059134 0.091173 0.346314
v 0.248063 0.314342 0.346314
v 0.243921 0.284201 0.346314
v 0.237083 0.254946 0.346314
v 0.227651 0.227003 0.346314
v 0.215762 0.200779 0.346314
v 0.201588 0.176658 0.346314
v 0.185337 0.154990 0.346314
v 0.167246 0.136092 0.346314
v 0.147579 0.120239 0.346314
v 0.126621 0.107663 0.346314
v 0.104680 0.098547 0.346314
v 0.082074 0.093023 0.346314
v -0.350549 0.347857 0.546314
v -0.158036 0.091173 0.546314
v -0.349622 0.322697 0.546314
v -0.346850 0.297780 0.546314
v -0.342260 0.273345 0.546314
v -0.335895 0.249628 0.546314
v -0.327817 0.226857 0.546314
v -0.318105 0.205251 0.546314
v -0.306851 0.185018 0.546314
v -0.294163 0.166354 0.546314
v -0.280165 0.149438 0.546314
v -0.264991 0.134432 0.546314
v -0.248786 0.121482 0.546314
v -0.231708 0.110712 0.546314
v -0.213920 0.102226 0.546314
v -0.195594 0.096105 0.546314
v -0.176906 0.092409 0.546314
v -0.158036 0.091173 0.346314
v -0.350549 0.347857 0.346314
v -0.176906 0.092409 0.346314
v -0.195594 0.096105 0.346314
v -0.213920 0.102226 0.346314
v -0.231708 0.110712 0.346314
v -0.248786 0.121482 0.346314
v -0.264991 0.134432 0.346314
v -0.280165 0.149438 0.346314
v -0.294163 0.166354 0.346314
v -0.306851 0.185018 0.346314
v -0.318105 0.205251 0.346314
v -0.327817 0.226857 0.346314
v -0.335895 0.249628 0.346314
v -0.342260 0.273345 0.346314
v -0.346850 0.297780 0.346314
v -0.349622 0.322697 0.346314
v -0.217377 0.891173 0.546314
v 0.105181 0.891173 0.546314
v -0.221603 0.758617 0.546314
v -0.219490 0.290547 0.546314
v 0.092745 0.284992 0.546314
v 0.093987 0.755000 0.546314
v -0.217377 0.891173 0.546314
v 0.105181 0.891173 0.546314
v -0.112966 0.653354 0.576465
v -0.221603 0.758617 0.568482
v -0.081361 0.394107 0.576861
v -0.206706 0.738703 0.576336
v -0.211696 0.745373 0.575298
v -0.215862 0.750942 0.573917
v -0.218997 0.755133 0.572264
v -0.220943 0.757735 0.570422
v -0.219490 0.290547 0.568482
v -0.069881 0.401911 0.576849
v -0.218838 0.291410 0.570422
v -0.216915 0.293955 0.572264
v -0.213818 0.298055 0.573917
v -0.209701 0.303504 0.575298
v -0.204771 0.310029 0.576336
v -0.199276 0.317302 0.576981
v 0.092745 0.284992 0.568482
v -0.024225 0.482734 0.576724
v 0.092092 0.285878 0.570421
v 0.090165 0.288491 0.572264
v 0.087060 0.292702 0.573917
v 0.082933 0.298297 0.575298
v 0.077992 0.304998 0.576336
v 0.072484 0.312467 0.576981
v 0.093987 0.755000 0.568482
v -0.081333 0.375118 0.576890
v 0.093329 0.754133 0.570422
v 0.091388 0.751576 0.572264
v 0.088261 0.747458 0.573917
v 0.084105 0.741983 0.575298
v 0.079129 0.735428 0.576336
v -0.042604 0.374274 0.576890
v -0.018035 0.473854 0.576737
v -0.018379 0.431560 0.576802
v -0.088966 0.604098 0.576540
v -0.119054 0.605030 0.576539
v -0.110767 0.591215 0.576560
v -0.097124 0.592130 0.576559
v -0.088966 0.604098 0.576540
v -0.089066 0.643063 0.576481
v -0.098278 0.654284 0.576464
v -0.119309 0.641210 0.576484
v -0.044285 0.393255 0.576862
v -0.052203 0.401917 0.576848
v -0.025554 0.421069 0.576818
v -0.038854 0.420193 0.576820
v -0.049469 0.426303 0.576811
v -0.049311 0.472964 0.576740
v -0.043920 0.480065 0.576729
v -0.098495 0.481838 0.576727
v -0.081493 0.482729 0.576726
v -0.076116 0.472074 0.576742
v -0.076092 0.435927 0.576797
v -0.083181 0.424547 0.576815
v -0.099145 0.423669 0.576816
v -0.106298 0.434167 0.576801
v -0.106503 0.472957 0.576741
v -0.091580 0.563757 0.576602
v -0.090622 0.545579 0.576630
v -0.051775 0.545574 0.576629
v -0.052621 0.565573 0.576598
v -0.062578 0.572877 0.576588
v -0.082534 0.571968 0.576589
v -0.031823 0.644224 0.420839
v -0.031820 0.644463 0.576478
v -0.039912 0.652624 0.576465
v -0.029680 0.612391 0.576527
v -0.037969 0.596713 0.576551
v -0.053445 0.595797 0.576553
v -0.060707 0.607781 0.576534
v -0.056391 0.652500 0.576466
v -0.061340 0.642906 0.576481
v -0.112966 0.653354 0.576465
v -0.098278 0.654284 0.576464
v -0.089066 0.643063 0.576481
v -0.088966 0.604098 0.576540
v -0.097124 0.592130 0.576559
v -0.110767 0.591215 0.576560
v -0.119054 0.605030 0.576539
v -0.119309 0.641210 0.576484
v -0.089066 0.643063 0.576481
v -0.098278 0.654284 0.576464
v -0.112966 0.653354 0.576465
v -0.119054 0.605030 0.576539
v -0.110767 0.591215 0.576560
v -0.119309 0.641210 0.576484
v -0.097124 0.592130 0.576559
v -0.110768 0.591132 0.522220
v -0.097125 0.592047 0.522219
v -0.112967 0.653271 0.522125
v -0.119310 0.641127 0.522144
v -0.119055 0.604946 0.522199
v -0.098279 0.654200 0.522124
v -0.089067 0.642980 0.522141
v -0.088967 0.604015 0.522200
v -0.091582 0.563647 0.504071
v -0.082536 0.571857 0.504058
v -0.090624 0.545469 0.504099
v -0.051777 0.545464 0.504097
v -0.052623 0.565463 0.504067
v -0.062580 0.572767 0.504057
v -0.030266 0.612391 0.576564
v -0.039915 0.652386 0.420827
v -0.037969 0.596713 0.576551
v -0.053445 0.595797 0.576553
v -0.060707 0.607781 0.576534
v -0.029683 0.612153 0.420889
v -0.056394 0.652262 0.420828
v -0.060710 0.607543 0.420896
v -0.061343 0.642668 0.420842
v -0.037972 0.596475 0.420913
v -0.053448 0.595559 0.420914
v -0.024228 0.482607 0.494045
v -0.043923 0.479939 0.494050
v -0.018038 0.473728 0.494059
v -0.018382 0.431434 0.494123
v -0.025558 0.420943 0.494140
v -0.038857 0.420067 0.494141
v -0.049472 0.426177 0.494132
v -0.049314 0.472837 0.494061
v -0.098497 0.481657 0.457965
v -0.106505 0.472776 0.457979
v -0.081496 0.482548 0.457964
v -0.076119 0.471893 0.457980
v -0.076094 0.435746 0.458035
v -0.083183 0.424365 0.458052
v -0.099148 0.423487 0.458054
v -0.106300 0.433985 0.458038
v -0.081363 0.393978 0.491508
v -0.069883 0.401782 0.491496
v -0.081334 0.374988 0.491537
v -0.042606 0.374144 0.491537
v -0.044286 0.393126 0.491509
v -0.052205 0.401788 0.491495
vn -1.0000 0.0000 0.0000
vn -0.0000 -0.0000 1.0000
vn -0.0000 0.0000 -1.0000
vn -0.0361 0.9993 0.0000
vn -0.1079 0.9942 0.0000
vn -0.1787 0.9839 0.0000
vn -0.2479 0.9688 0.0000
vn -0.3147 0.9492 0.0000
vn -0.3789 0.9254 -0.0000
vn -0.4399 0.8980 0.0000
vn -0.4975 0.8674 0.0000
vn -0.5516 0.8341 0.0000
vn -0.6020 0.7985 0.0000
vn -0.6486 0.7611 0.0000
vn -0.6917 0.7222 0.0000
vn -0.7312 0.6822 -0.0000
vn -0.7672 0.6414 0.0000
vn -0.8000 0.6000 0.0000
vn -0.8297 0.5582 0.0000
vn -0.8564 0.5163 0.0000
vn -0.8804 0.4743 0.0000
vn -0.9017 0.4323 0.0000
vn -0.9207 0.3904 0.0000
vn -0.9373 0.3486 0.0000
vn -0.9517 0.3070 0.0000
vn -0.9641 0.2656 0.0000
vn -0.9745 0.2244 -0.0000
vn -0.9830 0.1834 -0.0000
vn -0.9898 0.1424 0.0000
vn -0.9948 0.1017 0.0000
vn -0.9981 0.0610 0.0000
vn -0.9998 0.0203 0.0000
vn 0.0615 0.9981 0.0000
vn 0.1829 0.9831 -0.0000
vn 0.2992 0.9542 0.0000
vn 0.4080 0.9130 0.0000
vn 0.5073 0.8617 0.0000
vn 0.5962 0.8028 0.0000
vn 0.6744 0.7384 0.0000
vn 0.7421 0.6703 0.0000
vn 0.8000 0.6000 0.0000
vn 0.8488 0.5287 0.0000
vn 0.8895 0.4570 0.0000
vn 0.9227 0.3855 0.0000
vn 0.9493 0.3144 0.0000
vn 0.9698 0.2438 0.0000
vn 0.9848 0.1737 0.0000
vn 0.9946 0.1041 0.0000
vn 0.9994 0.0347 0.0000
vn 0.0000 1.0000 0.0000
vn 0.0804 -0.9968 0.0000
vn 0.2374 -0.9714 -0.0000
vn 0.3837 -0.9235 0.0000
vn 0.5145 -0.8575 0.0000
vn 0.6276 -0.7786 -0.0000
vn 0.7224 -0.6915 -0.0000
vn 0.8000 -0.6000 0.0000
vn 0.8622 -0.5066 0.0000
vn 0.9108 -0.4129 0.0000
vn 0.9475 -0.3198 0.0000
vn 0.9738 -0.2276 0.0000
vn 0.9907 -0.1362 0.0000
vn 0.9990 -0.0453 0.0000
vn 1.0000 0.0000 0.0000
vn -0.0654 -0.9979 0.0000
vn -0.1940 -0.9810 -0.0000
vn -0.3168 -0.9485 -0.0000
vn -0.4306 -0.9025 -0.0000
vn -0.5334 -0.8459 -0.0000
vn -0.6243 -0.7812 -0.0000
vn -0.7031 -0.7111 -0.0000
vn -0.7704 -0.6375 0.0000
vn -0.8270 -0.5622 -0.0000
vn -0.8739 -0.4861 -0.0000
vn -0.9121 -0.4100 -0.0000
vn -0.9425 -0.3343 -0.0000
vn -0.9658 -0.2592 -0.0000
vn -0.9828 -0.1846 -0.0000
vn -0.9939 -0.1106 -0.0000
vn -0.9993 -0.0368 -0.0000
vn 0.0000 -1.0000 0.0000
vn 0.0115 0.9999 0.0000
vn -1.0000 -0.0045 0.0000
vn 1.0000 -0.0026 0.0000
vn -0.0178 -0.9998 0.0000
vn -0.9473 -0.0043 0.3202
vn -0.6897 -0.0031 0.7241
vn -0.4686 -0.0021 0.8834
vn -0.3162 -0.0014 0.9487
vn -0.2050 -0.0009 0.9788
vn -0.1158 -0.0005 0.9933
vn -0.0162 -0.9116 0.4109
vn -0.0103 -0.5813 0.8136
vn -0.0066 -0.3696 0.9291
vn -0.0043 -0.2425 0.9701
vn -0.0028 -0.1552 0.9879
vn -0.0016 -0.0871 0.9962
vn 0.9473 -0.0025 0.3202
vn 0.6897 -0.0018 0.7241
vn 0.4686 -0.0012 0.8834
vn 0.3162 -0.0008 0.9487
vn 0.2050 -0.0005 0.9788
vn 0.1159 -0.0003 0.9933
vn 0.0104 0.9116 0.4108
vn 0.0067 0.5813 0.8137
vn 0.0042 0.3697 0.9292
vn 0.0028 0.2425 0.9701
vn 0.0018 0.1552 0.9879
vn -0.8263 0.5632 -0.0008
vn -0.8254 0.5645 -0.0008
vn 0.0000 0.0015 1.0000
vn 0.9998 0.0180 -0.0000
vn 0.5622 -0.8270 0.0012
vn -0.0001 0.0016 1.0000
vn -0.8488 0.5287 -0.0008
vn -0.8908 0.4543 -0.0024
vn 0.0455 -0.9990 0.0015
vn -0.7729 -0.6345 0.0010
vn 0.8576 0.5144 -0.0008
vn -0.0669 0.9978 -0.0015
vn 0.8864 -0.4629 0.0007
vn -1.0000 -0.0026 0.0000
vn 0.0632 -0.9980 0.0015
vn 1.0000 0.0071 -0.0000
vn -0.9991 -0.0423 0.0001
vn 0.9986 0.0526 -0.0001
vn -0.5915 -0.8063 0.0012
vn 0.0001 1.0000 -0.0015
vn 0.6721 -0.7405 0.0011
vn -0.7101 -0.7041 0.0011
vn 0.8552 0.5182 -0.0008
vn -0.9983 -0.0575 -0.0018
vn 0.0641 -0.0325 0.9974
vn 0.0006 0.0010 1.0000
vn 0.0075 -1.0000 0.0015
vn -0.0591 0.9983 -0.0015
vn 0.8887 -0.4584 0.0007
vn -0.8203 -0.5719 0.0009
vn 1.0000 -0.0034 -0.0000
vn -0.0657 0.9978 -0.0015
vn -1.0000 0.0081 0.0000
vn 0.1343 -0.9909 0.0015
vn 0.7965 -0.6046 0.0009
vn 0.4989 0.8667 -0.0013
vn -0.8928 -0.4505 0.0007
vn 0.7427 -0.6697 0.0010
vn 1.0000 0.0053 -0.0000
vn -0.0549 0.9985 -0.0015
vn -1.0000 -0.0007 0.0000
vn 0.0523 -0.9986 0.0015
vn 0.8264 0.5630 -0.0009
vn 0.0003 -1.0000 0.0015
vn -0.9961 -0.0882 0.0002
vn 1.0000 0.0015 -0.0000
vn -0.7381 -0.6747 0.0010
vn 0.0218 0.9998 -0.0015
usemtl None
s off
f 125//1 2//1 31//1 143//1
f 97//2 99//2 100//2 101//2 102//2 103//2 104//2 105//2 106//2 107//2 108//2 109//2 110//2 98//2 61//2 63//2 64//2 65//2 66//2 164//2 163//2 162//2 161//2 26//2 27//2 28//2 29//2 30//2 2//2 125//2 127//2 128//2 129//2 130//2 131//2 132//2 133//2 134//2 135//2 136//2 137//2 138//2 139//2 140//2 141//2 126//2
f 142//3 144//3 145//3 146//3 147//3 148//3 149//3 150//3 151//3 152//3 153//3 154//3 155//3 156//3 157//3 158//3 143//3 31//3 33//3 34//3 35//3 36//3 37//3 38//3 39//3 40//3 41//3 42//3 43//3 44//3 45//3 46//3 47//3 48//3 49//3 50//3 51//3 52//3 53//3 54//3 55//3 56//3 57//3 58//3 59//3 60//3 32//3 79//3 81//3 82//3 83//3 84//3 85//3 86//3 87//3 88//3 89//3 90//3 91//3 92//3 93//3 94//3 95//3 96//3 80//3 111//3 113//3 114//3 115//3 116//3 117//3 118//3 119//3 120//3 121//3 122//3 123//3 124//3 112//3
f 1//4 32//4 60//4 3//4
f 3//5 60//5 59//5 4//5
f 4//6 59//6 58//6 5//6
f 5//7 58//7 57//7 6//7
f 6//8 57//8 56//8 7//8
f 7//9 56//9 55//9 8//9
f 8//10 55//10 54//10 9//10
f 9//11 54//11 53//11 10//11
f 10//12 53//12 52//12 11//12
f 11//13 52//13 51//13 12//13
f 12//14 51//14 50//14 13//14
f 13//15 50//15 49//15 14//15
f 14//16 49//16 48//16 15//16
f 15//17 48//17 47//17 16//17
f 16//18 47//18 46//18 17//18
f 17//19 46//19 45//19 18//19
f 18//20 45//20 44//20 19//20
f 19//21 44//21 43//21 20//21
f 20//22 43//22 42//22 21//22
f 21//23 42//23 41//23 22//23
f 22//24 41//24 40//24 23//24
f 23//25 40//25 39//25 24//25
f 24//26 39//26 38//26 25//26
f 25//27 38//27 37//27 26//27
f 26//28 37//28 36//28 27//28
f 27//29 36//29 35//29 28//29
f 28//30 35//30 34//30 29//30
f 29//31 34//31 33//31 30//31
f 30//32 33//32 31//32 2//32
f 79//33 62//33 78//33 81//33
f 81//34 78//34 77//34 82//34
f 82//35 77//35 76//35 83//35
f 83//36 76//36 75//36 84//36
f 84//37 75//37 74//37 85//37
f 85//38 74//38 73//38 86//38
f 86//39 73//39 72//39 87//39
f 87//40 72//40 71//40 88//40
f 88//41 71//41 70//41 89//41
f 89//42 70//42 69//42 90//42
f 90//43 69//43 68//43 91//43
f 91//44 68//44 67//44 92//44
f 92//45 67//45 66//45 93//45
f 93//46 66//46 65//46 94//46
f 94//47 65//47 64//47 95//47
f 95//48 64//48 63//48 96//48
f 96//49 63//49 61//49 80//49
f 79//50 32//50 1//50 62//50
f 97//51 112//51 124//51 99//51
f 99//52 124//52 123//52 100//52
f 100//53 123//53 122//53 101//53
f 101//54 122//54 121//54 102//54
f 102//55 121//55 120//55 103//55
f 103//56 120//56 119//56 104//56
f 104//57 119//57 118//57 105//57
f 105//58 118//58 117//58 106//58
f 106//59 117//59 116//59 107//59
f 107//60 116//60 115//60 108//60
f 108//61 115//61 114//61 109//61
f 109//62 114//62 113//62 110//62
f 110//63 113//63 111//63 98//63
f 111//64 80//64 61//64 98//64
f 142//65 126//65 141//65 144//65
f 144//66 141//66 140//66 145//66
f 145//67 140//67 139//67 146//67
f 146//68 139//68 138//68 147//68
f 147//69 138//69 137//69 148//69
f 148//70 137//70 136//70 149//70
f 149//71 136//71 135//71 150//71
f 150//72 135//72 134//72 151//72
f 151//73 134//73 133//73 152//73
f 152//74 133//74 132//74 153//74
f 153//75 132//75 131//75 154//75
f 154//76 131//76 130//76 155//76
f 155//77 130//77 129//77 156//77
f 156//78 129//78 128//78 157//78
f 157//79 128//79 127//79 158//79
f 158//80 127//80 125//80 143//80
f 142//81 112//81 97//81 126//81
f 62//2 1//2 159//2 160//2
f 164//82 161//82 168//82 191//82
f 26//2 161//2 164//2 66//2 67//2 68//2 69//2 70//2 71//2 72//2 73//2 74//2 75//2 76//2 77//2 78//2 62//2 1//2 3//2 4//2 5//2 6//2 7//2 8//2 9//2 10//2 11//2 12//2 13//2 14//2 15//2 16//2 17//2 18//2 19//2 20//2 21//2 22//2 23//2 24//2 25//2
f 161//83 162//83 175//83 168//83
f 163//84 164//84 191//84 183//84
f 160//2 159//2 165//2 166//2
f 162//85 163//85 183//85 175//85
f 168//86 175//86 177//86 174//86
f 174//87 177//87 178//87 173//87
f 173//88 178//88 179//88 172//88
f 172//89 179//89 180//89 171//89
f 171//90 180//90 181//90 170//90
f 170//91 181//91 182//91
f 205//2 206//2 247//2 201//2
f 175//92 183//92 185//92 177//92
f 177//93 185//93 186//93 178//93
f 178//94 186//94 187//94 179//94
f 179//95 187//95 188//95 180//95
f 180//96 188//96 189//96 181//96
f 181//97 189//97 190//97 182//97
f 240//2 239//2 167//2 207//2
f 183//98 191//98 193//98 185//98
f 185//99 193//99 194//99 186//99
f 186//100 194//100 195//100 187//100
f 187//101 195//101 196//101 188//101
f 188//102 196//102 197//102 189//102
f 189//103 197//103 190//103
f 206//2 207//2 248//2 247//2
f 191//104 168//104 174//104 193//104
f 193//105 174//105 173//105 194//105
f 194//106 173//106 172//106 195//106
f 195//107 172//107 171//107 196//107
f 196//108 171//108 170//108 197//108
f 202//2 203//2 251//2 250//2
f 242//2 241//2 206//2 205//2
f 253//109 201//109 261//109 255//109
f 208//2 202//2 250//2 252//2
f 244//2 243//2 204//2 203//2
f 167//2 208//2 252//2 249//2
f 211//110 200//110 282//110 283//110
f 273//111 230//111 269//111 274//111 276//111 275//111 278//111 277//111
f 238//112 272//112 275//112 276//112
f 220//111 169//111 176//111 210//111 209//111 198//111 190//111 219//111
f 239//2 246//2 208//2 167//2
f 243//2 242//2 205//2 204//2
f 245//2 244//2 203//2 202//2
f 176//113 169//113 295//113 296//113
f 241//2 240//2 207//2 206//2
f 246//2 245//2 202//2 208//2
f 182//111 190//111 198//111 192//111 169//111 220//111 221//111 222//111 223//111
f 197//114 170//114 246//114 239//114 240//114 241//114 242//114 272//114 238//114 237//114 232//114 231//114 268//114
f 220//115 219//115 291//115 292//115
f 190//111 199//111 200//111 211//111 212//111 213//111 219//111
f 204//2 205//2 201//2 253//2
f 270//116 268//116 273//116 277//116
f 228//117 229//117 263//117 267//117
f 216//111 217//111 218//111 219//111 213//111 214//111 215//111 184//111 199//111 190//111 197//111 226//111 225//111 224//111 243//111 244//111 245//111 246//111 170//111 182//111 223//111
f 203//2 204//2 253//2 251//2
f 207//2 167//2 249//2 248//2
f 261//111 260//111 259//111 256//111 257//111 258//111 254//111 255//111
f 247//118 248//118 259//118 260//118
f 250//119 251//119 254//119 258//119
f 251//120 253//120 255//120 254//120
f 249//121 252//121 257//121 256//121
f 201//122 247//122 260//122 261//122
f 248//123 249//123 256//123 259//123
f 252//124 250//124 258//124 257//124
f 265//111 266//111 267//111 263//111 262//111 264//111
f 226//125 227//125 266//125 265//125
f 224//126 225//126 264//126 262//126
f 227//127 228//127 267//127 266//127
f 225//128 226//128 265//128 264//128
f 229//129 224//129 262//129 263//129
f 231//130 232//130 269//130 230//130
f 235//2 234//2 270//2 271//2
f 272//131 271//131 278//131 275//131
f 268//132 231//132 230//132 273//132
f 236//2 235//2 271//2 272//2
f 234//133 233//133 268//133 270//133
f 197//134 268//134 233//134 234//134 235//134 236//134 272//134 242//134 243//134 224//134 229//134 228//134 227//134 226//134
f 232//135 237//135 274//135 269//135
f 271//136 270//136 277//136 278//136
f 237//137 238//137 276//137 274//137
f 285//111 284//111 283//111 282//111 281//111 279//111 280//111 286//111
f 199//138 184//138 279//138 281//138
f 214//139 213//139 285//139 286//139
f 212//140 211//140 283//140 284//140
f 200//141 199//141 281//141 282//141
f 184//142 215//142 280//142 279//142
f 215//143 214//143 286//143 280//143
f 213//144 212//144 284//144 285//144
f 288//111 294//111 293//111 292//111 291//111 290//111 289//111 287//111
f 218//145 217//145 289//145 290//145
f 216//146 223//146 288//146 287//146
f 223//147 222//147 294//147 288//147
f 221//148 220//148 292//148 293//148
f 219//149 218//149 290//149 291//149
f 217//150 216//150 287//150 289//150
f 222//151 221//151 293//151 294//151
f 298//111 299//111 300//111 296//111 295//111 297//111
f 210//152 176//152 296//152 300//152
f 198//153 209//153 299//153 298//153
f 169//154 192//154 297//154 295//154
f 209//155 210//155 300//155 299//155
f 192//156 198//156 298//156 297//156
